<svg xmlns="http://www.w3.org/2000/svg" viewBox="0 0 55.91 43.02"><defs><style>.cls-1{fill:#801f1e;}.cls-2{fill:#9a3335;}.cls-3{fill:#fff;}</style></defs><title>Ресурс 1</title><g id="Слой_2" data-name="Слой 2"><g id="Слой_1-2" data-name="Слой 1"><g id="_Группа_" data-name="&lt;Группа&gt;"><rect id="_Прямоугольник_" data-name="&lt;Прямоугольник&gt;" class="cls-1" width="55.91" height="43.02" rx="6.76" ry="6.76"/><rect id="_Прямоугольник_2" data-name="&lt;Прямоугольник&gt;" class="cls-2" width="52.5" height="39.12" rx="6.76" ry="6.76"/><g id="_Группа_2" data-name="&lt;Группа&gt;"><path id="_Составной_контур_" data-name="&lt;Составной контур&gt;" class="cls-3" d="M26.26,23.55l-3.45-3L12.95,29a2,2,0,0,0,1.37.54H38.19A2,2,0,0,0,39.56,29L29.7,20.52Zm0,0"/><path id="_Составной_контур_2" data-name="&lt;Составной контур&gt;" class="cls-3" d="M39.56,10.15a2,2,0,0,0-1.37-.55H14.32a2,2,0,0,0-1.37.55l13.31,11.4Zm0,0"/><path id="_Составной_контур_3" data-name="&lt;Составной контур&gt;" class="cls-3" d="M12.32,11.36V27.89l9.62-8.18Zm0,0"/><path id="_Составной_контур_4" data-name="&lt;Составной контур&gt;" class="cls-3" d="M30.56,19.71l9.62,8.18V11.35Zm0,0"/></g></g></g></g></svg>