<svg xmlns="http://www.w3.org/2000/svg" viewBox="0 0 55.91 43.02"><defs><style>.cls-1{fill:#801f1e}.cls-2{fill:#9a3335}.cls-3{fill:#fff}</style></defs><title>Ресурс 1</title><g id="Слой_2" data-name="Слой 2"><g id="Слой_1-2" data-name="Слой 1"><g id="_Группа_" data-name="&amp;lt;Группа&amp;gt;"><rect id="_Прямоугольник_" data-name="&amp;lt;Прямоугольник&amp;gt;" class="cls-1" width="55.91" height="43.02" rx="6.76" ry="6.76"/><rect id="_Прямоугольник_2" data-name="&amp;lt;Прямоугольник&amp;gt;" class="cls-2" width="52.5" height="39.12" rx="6.76" ry="6.76"/><g id="_Группа_2" data-name="&amp;lt;Группа&amp;gt;"><path id="_Составной_контур_" data-name="&amp;lt;Составной контур&amp;gt;" class="cls-3" d="M26.26 23.55l-3.45-3L12.95 29a2 2 0 0 0 1.37.54h23.87a2 2 0 0 0 1.37-.54l-9.86-8.48zm0 0"/><path id="_Составной_контур_2" data-name="&amp;lt;Составной контур&amp;gt;" class="cls-3" d="M39.56 10.15a2 2 0 0 0-1.37-.55H14.32a2 2 0 0 0-1.37.55l13.31 11.4zm0 0"/><path id="_Составной_контур_3" data-name="&amp;lt;Составной контур&amp;gt;" class="cls-3" d="M12.32 11.36v16.53l9.62-8.18zm0 0"/><path id="_Составной_контур_4" data-name="&amp;lt;Составной контур&amp;gt;" class="cls-3" d="M30.56 19.71l9.62 8.18V11.35zm0 0"/></g></g></g></g></svg>